<mxfile host="app.diagrams.net" modified="2023-12-16T01:01:37.709Z" agent="Mozilla/5.0 (Windows NT 10.0; Win64; x64) AppleWebKit/537.36 (KHTML, like Gecko) Chrome/120.0.0.0 Safari/537.36 Edg/120.0.0.0" etag="jTeT1XRxFTzaP3Z7Dclj" version="22.1.9" type="device">
  <diagram name="Page-1" id="R0XffiT2ewEHFwE2s-5m">
    <mxGraphModel dx="1365" dy="812" grid="1" gridSize="10" guides="1" tooltips="1" connect="1" arrows="1" fold="1" page="1" pageScale="1" pageWidth="850" pageHeight="1100" math="0" shadow="0">
      <root>
        <mxCell id="0" />
        <mxCell id="1" parent="0" />
        <mxCell id="sU6NPrBG2Jyet6O0ogo9-18" style="edgeStyle=orthogonalEdgeStyle;rounded=0;orthogonalLoop=1;jettySize=auto;html=1;exitX=0.75;exitY=1;exitDx=0;exitDy=0;entryX=0.75;entryY=0;entryDx=0;entryDy=0;" edge="1" parent="1" source="sU6NPrBG2Jyet6O0ogo9-1" target="sU6NPrBG2Jyet6O0ogo9-2">
          <mxGeometry relative="1" as="geometry" />
        </mxCell>
        <mxCell id="sU6NPrBG2Jyet6O0ogo9-1" value="Despawned" style="rounded=1;whiteSpace=wrap;html=1;" vertex="1" parent="1">
          <mxGeometry x="360" y="190" width="120" height="60" as="geometry" />
        </mxCell>
        <mxCell id="sU6NPrBG2Jyet6O0ogo9-5" value="" style="edgeStyle=orthogonalEdgeStyle;rounded=0;orthogonalLoop=1;jettySize=auto;html=1;entryX=0.5;entryY=0;entryDx=0;entryDy=0;" edge="1" parent="1" source="sU6NPrBG2Jyet6O0ogo9-2" target="sU6NPrBG2Jyet6O0ogo9-23">
          <mxGeometry relative="1" as="geometry" />
        </mxCell>
        <mxCell id="sU6NPrBG2Jyet6O0ogo9-19" style="edgeStyle=orthogonalEdgeStyle;rounded=0;orthogonalLoop=1;jettySize=auto;html=1;exitX=0.25;exitY=0;exitDx=0;exitDy=0;entryX=0.25;entryY=1;entryDx=0;entryDy=0;" edge="1" parent="1" source="sU6NPrBG2Jyet6O0ogo9-2" target="sU6NPrBG2Jyet6O0ogo9-1">
          <mxGeometry relative="1" as="geometry" />
        </mxCell>
        <mxCell id="sU6NPrBG2Jyet6O0ogo9-2" value="Spawning" style="rounded=1;whiteSpace=wrap;html=1;" vertex="1" parent="1">
          <mxGeometry x="360" y="330" width="120" height="60" as="geometry" />
        </mxCell>
        <mxCell id="sU6NPrBG2Jyet6O0ogo9-12" style="edgeStyle=orthogonalEdgeStyle;rounded=0;orthogonalLoop=1;jettySize=auto;html=1;entryX=0;entryY=0.5;entryDx=0;entryDy=0;" edge="1" parent="1" source="sU6NPrBG2Jyet6O0ogo9-4" target="sU6NPrBG2Jyet6O0ogo9-1">
          <mxGeometry relative="1" as="geometry">
            <Array as="points">
              <mxPoint x="390" y="520" />
              <mxPoint x="340" y="520" />
              <mxPoint x="340" y="220" />
            </Array>
          </mxGeometry>
        </mxCell>
        <mxCell id="sU6NPrBG2Jyet6O0ogo9-14" style="edgeStyle=orthogonalEdgeStyle;rounded=0;orthogonalLoop=1;jettySize=auto;html=1;exitX=0.75;exitY=1;exitDx=0;exitDy=0;entryX=0.75;entryY=0;entryDx=0;entryDy=0;" edge="1" parent="1" source="sU6NPrBG2Jyet6O0ogo9-4" target="sU6NPrBG2Jyet6O0ogo9-6">
          <mxGeometry relative="1" as="geometry" />
        </mxCell>
        <mxCell id="sU6NPrBG2Jyet6O0ogo9-4" value="Idling" style="rounded=1;whiteSpace=wrap;html=1;" vertex="1" parent="1">
          <mxGeometry x="360" y="560" width="120" height="60" as="geometry" />
        </mxCell>
        <mxCell id="sU6NPrBG2Jyet6O0ogo9-15" style="edgeStyle=orthogonalEdgeStyle;rounded=0;orthogonalLoop=1;jettySize=auto;html=1;exitX=0.25;exitY=0;exitDx=0;exitDy=0;entryX=0.25;entryY=1;entryDx=0;entryDy=0;" edge="1" parent="1" source="sU6NPrBG2Jyet6O0ogo9-6" target="sU6NPrBG2Jyet6O0ogo9-4">
          <mxGeometry relative="1" as="geometry" />
        </mxCell>
        <mxCell id="sU6NPrBG2Jyet6O0ogo9-27" value="" style="edgeStyle=orthogonalEdgeStyle;rounded=0;orthogonalLoop=1;jettySize=auto;html=1;" edge="1" parent="1" source="sU6NPrBG2Jyet6O0ogo9-6" target="sU6NPrBG2Jyet6O0ogo9-26">
          <mxGeometry relative="1" as="geometry" />
        </mxCell>
        <mxCell id="sU6NPrBG2Jyet6O0ogo9-30" style="edgeStyle=orthogonalEdgeStyle;rounded=0;orthogonalLoop=1;jettySize=auto;html=1;exitX=1;exitY=0.25;exitDx=0;exitDy=0;entryX=0;entryY=0.25;entryDx=0;entryDy=0;" edge="1" parent="1" source="sU6NPrBG2Jyet6O0ogo9-6" target="sU6NPrBG2Jyet6O0ogo9-8">
          <mxGeometry relative="1" as="geometry" />
        </mxCell>
        <mxCell id="sU6NPrBG2Jyet6O0ogo9-6" value="PreparingLunge" style="rounded=1;whiteSpace=wrap;html=1;" vertex="1" parent="1">
          <mxGeometry x="360" y="700" width="120" height="60" as="geometry" />
        </mxCell>
        <mxCell id="sU6NPrBG2Jyet6O0ogo9-31" style="edgeStyle=orthogonalEdgeStyle;rounded=0;orthogonalLoop=1;jettySize=auto;html=1;exitX=0;exitY=0.75;exitDx=0;exitDy=0;entryX=1;entryY=0.75;entryDx=0;entryDy=0;" edge="1" parent="1" source="sU6NPrBG2Jyet6O0ogo9-8" target="sU6NPrBG2Jyet6O0ogo9-6">
          <mxGeometry relative="1" as="geometry" />
        </mxCell>
        <mxCell id="sU6NPrBG2Jyet6O0ogo9-8" value="Scared" style="rounded=1;whiteSpace=wrap;html=1;" vertex="1" parent="1">
          <mxGeometry x="570" y="700" width="120" height="60" as="geometry" />
        </mxCell>
        <mxCell id="sU6NPrBG2Jyet6O0ogo9-21" style="edgeStyle=orthogonalEdgeStyle;rounded=0;orthogonalLoop=1;jettySize=auto;html=1;" edge="1" parent="1" source="sU6NPrBG2Jyet6O0ogo9-20" target="sU6NPrBG2Jyet6O0ogo9-1">
          <mxGeometry relative="1" as="geometry" />
        </mxCell>
        <mxCell id="sU6NPrBG2Jyet6O0ogo9-20" value="Start" style="ellipse;whiteSpace=wrap;html=1;" vertex="1" parent="1">
          <mxGeometry x="380" y="60" width="80" height="80" as="geometry" />
        </mxCell>
        <mxCell id="sU6NPrBG2Jyet6O0ogo9-25" style="edgeStyle=orthogonalEdgeStyle;rounded=0;orthogonalLoop=1;jettySize=auto;html=1;entryX=0.5;entryY=0;entryDx=0;entryDy=0;" edge="1" parent="1" source="sU6NPrBG2Jyet6O0ogo9-23" target="sU6NPrBG2Jyet6O0ogo9-4">
          <mxGeometry relative="1" as="geometry" />
        </mxCell>
        <mxCell id="sU6NPrBG2Jyet6O0ogo9-23" value="UnseenByCamera" style="rounded=1;whiteSpace=wrap;html=1;" vertex="1" parent="1">
          <mxGeometry x="360" y="430" width="120" height="60" as="geometry" />
        </mxCell>
        <mxCell id="sU6NPrBG2Jyet6O0ogo9-28" style="edgeStyle=orthogonalEdgeStyle;rounded=0;orthogonalLoop=1;jettySize=auto;html=1;entryX=0;entryY=0.5;entryDx=0;entryDy=0;" edge="1" parent="1" source="sU6NPrBG2Jyet6O0ogo9-26" target="sU6NPrBG2Jyet6O0ogo9-4">
          <mxGeometry relative="1" as="geometry">
            <Array as="points">
              <mxPoint x="340" y="870" />
              <mxPoint x="340" y="590" />
            </Array>
          </mxGeometry>
        </mxCell>
        <mxCell id="sU6NPrBG2Jyet6O0ogo9-26" value="Lunging" style="rounded=1;whiteSpace=wrap;html=1;" vertex="1" parent="1">
          <mxGeometry x="360" y="840" width="120" height="60" as="geometry" />
        </mxCell>
      </root>
    </mxGraphModel>
  </diagram>
</mxfile>
